<?xml version="1.0" standalone="no"?><!DOCTYPE svg PUBLIC "-//W3C//DTD SVG 1.1//EN"
        "http://www.w3.org/Graphics/SVG/1.1/DTD/svg11.dtd">
<svg class="icon" viewBox="0 0 1024 1024" version="1.1" xmlns="http://www.w3.org/2000/svg" width="200" height="200">
    <defs>
        <style type="text/css"/>
    </defs>
    <path d="M510.171429 956.708571a473.088 473.088 0 1 1 473.014857-473.088 473.6 473.6 0 0 1-473.014857 473.014858z m0-918.893714a445.805714 445.805714 0 1 0 445.732571 445.805714A446.317714 446.317714 0 0 0 510.171429 37.814857z"
          fill="#3EA1FC"/>
    <path d="M682.934857 866.742857c173.129143-83.017143 256.731429-222.354286 250.733714-418.157714-20.845714-323.072-411.574857-452.754286-499.712-251.904-41.545143 183.954286 209.627429 163.547429 308.662858 300.470857 88.502857 124.781714 68.608 247.954286-59.684572 369.590857z"
          fill="#3EA1FC"/>
    <path d="M333.531429 101.083429C160.402286 184.100571 76.8 323.510857 82.797714 519.241143c20.845714 323.072 411.574857 452.754286 499.712 251.904 41.618286-183.954286-209.554286-163.547429-308.516571-300.397714-88.502857-125.001143-68.754286-248.246857 59.538286-369.664z"
          fill="#3EA1FC"/>
</svg>
